<svg xmlns="http://www.w3.org/2000/svg" width="40" height="40" viewBox="0 0 40 40" fill="none">
  <rect width="40" height="40" rx="8" fill="#0D6EFD"/>
  <path d="M20 8C13.373 8 8 13.373 8 20C8 26.627 13.373 32 20 32C26.627 32 32 26.627 32 20C32 13.373 26.627 8 20 8ZM20 12C22.2091 12 24 13.7909 24 16C24 18.2091 22.2091 20 20 20C17.7909 20 16 18.2091 16 16C16 13.7909 17.7909 12 20 12ZM20 30C16.6863 30 13.7451 28.5 12 26.1667C12.05 23.0833 16 21.5 20 21.5C23.9833 21.5 27.95 23.0833 28 26.1667C26.2549 28.5 23.3137 30 20 30Z" fill="white"/>
  <path d="M26 13C26 12.4477 26.4477 12 27 12H30C30.5523 12 31 12.4477 31 13V18.5C31 19.0523 30.5523 19.5 30 19.5C29.4477 19.5 29 19.0523 29 18.5V14H27C26.4477 14 26 13.5523 26 13Z" fill="white"/>
</svg>
